<?xml version="1.0" encoding="iso-8859-1"?>
<!-- Uploaded to: SVG Repo, www.svgrepo.com, Generator: SVG Repo Mixer Tools -->
<svg fill="#000000" height="800px" width="800px" version="1.1" id="Layer_1" xmlns="http://www.w3.org/2000/svg" xmlns:xlink="http://www.w3.org/1999/xlink" 
	 viewBox="0 0 502.693 502.693" xml:space="preserve">
<g>
	<g>
		<path d="M497.793,459.347c-5.333-6.4-10.667-11.733-16-16c0-1.067,0-3.2-1.067-4.267l-82.133-295.467
			c-2.133-8.533-9.6-14.933-19.2-14.933c-8.533-1.067-17.067,5.333-20.267,13.867l-30.933,88.533L275.926,98.813
			c-3.2-7.467-11.733-12.8-20.267-12.8s-16,5.333-19.2,13.867l-73.6,222.933l-17.067-39.467c-4.267-7.467-10.667-12.8-19.2-12.8
			s-16,4.267-19.2,11.733l-75.733,156.8c-1.067,1.067-1.067,3.2-2.133,4.267c-8.533,6.4-17.067,13.867-24.533,23.467
			c-7.467,9.6-6.4,22.4,2.133,29.867c4.267,3.2,9.6,5.333,13.867,5.333c5.333,0,11.733-2.133,16-8.533
			c22.4-25.6,50.133-35.2,75.733-25.6c5.333,2.133,10.667,5.333,17.067,8.533c17.067,9.6,38.4,21.333,61.867,14.933
			c10.667-2.133,19.2-7.467,26.667-12.8c2.133-1.067,4.267-3.2,6.4-4.267c18.133-10.667,38.4-12.8,57.6-6.4
			c4.267,1.067,8.533,3.2,12.8,5.333c13.867,6.4,29.867,12.8,48,10.667c12.8-1.067,24.533-8.533,34.133-13.867
			c3.2-2.133,7.467-4.267,10.667-6.4c25.6-12.8,53.333-4.267,75.733,22.4c7.467,9.6,21.333,10.667,30.933,3.2
			C504.193,481.747,505.259,467.88,497.793,459.347z M148.993,440.147c-6.4-4.267-13.867-7.467-21.333-10.667
			c-12.8-5.333-26.667-7.467-40.533-6.4l38.4-81.067l49.067,108.8C167.126,449.747,158.593,445.48,148.993,440.147z M262.06,423.08
			c-16-1.066-33.067,3.2-49.067,10.667l-24.533-54.4l69.333-212.267l49.067,120.533c0,1.067,1.067,2.133,1.067,3.2L262.06,423.08z
			 M371.926,426.28c-4.267,2.133-9.6,4.267-13.867,7.467c-7.467,4.267-13.867,7.467-19.2,8.533c-6.4,1.067-16-3.2-25.6-7.467
			c-3.2-1.067-6.4-2.133-9.6-3.2l72.533-211.2l54.4,198.4C411.393,414.546,391.126,417.747,371.926,426.28z"/>
	</g>
</g>
<g>
	<g>
		<path d="M88.193,0.68C47.66,0.68,15.66,33.747,15.66,73.213s32,71.467,71.466,71.467s72.533-32,73.6-71.467
			C160.726,32.68,127.659,0.68,88.193,0.68z M87.126,104.146c-16,0-29.867-13.867-29.867-30.933c0-17.066,12.8-30.933,29.867-30.933
			s29.867,13.867,29.867,30.933S104.193,104.146,87.126,104.146z"/>
	</g>
</g>
</svg>