<?xml version="1.0" encoding="iso-8859-1"?>
<!-- Uploaded to: SVG Repo, www.svgrepo.com, Generator: SVG Repo Mixer Tools -->
<svg fill="#000000" height="800px" width="800px" version="1.1" id="Layer_1" xmlns="http://www.w3.org/2000/svg" xmlns:xlink="http://www.w3.org/1999/xlink" 
	 viewBox="0 0 502.4 502.4" xml:space="preserve">
<g>
	<g>
		<path d="M481.066,96H360.533l-33.067-72.533c-3.2-7.467-10.667-12.8-19.2-12.8H194.133c-8.533,0-16,5.333-19.2,12.8L141.867,96
			H21.333C9.6,96,0,105.6,0,117.333V470.4c0,11.733,9.6,21.333,21.333,21.333H480c11.733,0,21.333-9.6,22.4-20.267V117.333
			C502.4,105.6,492.8,96,481.066,96z M208,53.333h87.467L314.666,96H187.733L208,53.333z M459.733,450.133H41.6V138.667h418.133
			V450.133z"/>
	</g>
</g>
<g>
	<g>
		<path d="M250.666,170.667c-68.267,0-123.733,55.467-123.733,123.733c0,68.267,55.467,123.733,123.733,123.733
			S374.4,362.667,374.4,294.4C374.4,226.133,318.933,170.667,250.666,170.667z M250.666,376.534
			c-44.8,0-82.133-37.333-82.133-82.133c0-44.8,37.333-82.133,82.133-82.133c44.8,0,82.133,36.267,82.133,82.133
			C332.8,339.2,295.466,376.534,250.666,376.534z"/>
	</g>
</g>
</svg>